<?xml version="1.0" encoding="utf-8"?>
<!-- Generator: Adobe Illustrator 27.6.1, SVG Export Plug-In . SVG Version: 6.00 Build 0)  -->
<svg version="1.1" id="レイヤー_1" xmlns="http://www.w3.org/2000/svg" xmlns:xlink="http://www.w3.org/1999/xlink" x="0px"
	 y="0px" width="269.07px" height="72.66px" viewBox="0 0 269.07 72.66" style="enable-background:new 0 0 269.07 72.66;"
	 xml:space="preserve">
<style type="text/css">
	.st0{fill:#45483C;}
	.st1{fill:#0B0011;}
</style>
<polygon class="st0" points="113.79,33.67 108.4,28.28 98.51,38.16 88.62,28.28 83.23,33.67 93.12,43.56 83.23,53.45 88.62,58.84 
	98.51,48.95 108.4,58.84 113.79,53.45 103.9,43.56 "/>
<path class="st1" d="M208.92,71.53h11.66V1.06h-11.66V71.53z M235.6,1.06h-11.66v70.46h21.7v-6.14H235.6V1.06z M257.42,1.06
	l-2.88,20.33l-3.27-20.33h-11.66l8.82,43.18v27.29H260V44.24l9.07-43.18C269.07,1.06,257.42,1.06,257.42,1.06z M191.18,1.06h15.02
	v70.59h-9.7V36.14l-4.64,35.51h-8.71l-4.64-35.51v35.51h-9.56h-0.14h-11.52l-1.68-13.8h-5.39l-0.39,3.37l-1.51,10.43h-11.7
	l4.52-33.23H127.4l-0.16,33.29l-11.66-0.06l0.34-70.7l26.92,0.13l-0.03,5.39l-15.26-0.01l-0.13,26.61h14.46l4.47-32.01h12.86
	l9.6,69.57V1.06h14.96l3.71,24.16L191.18,1.06z M154.91,52.51l-0.07-0.5l0,0l-0.15-1.15l-0.58-3.56h0.01l-0.17-1.07v-0.01
	l-1.16-7.12l-1.34,8.2h0.01l-0.61,5.22h4.06V52.51z M44.85,0.8c9.48,0,13.76,3.93,13.76,12.79v29.95c0,10.92-3.87,15.24-14.34,15.24
	h-1.4V71.6H31.01V0.8H44.85 M46.83,13.78c0-0.41-0.01-0.78-0.04-1.12v-2.65c0-3.12-0.74-4-3.46-4h-0.5v47.33h0.74
	c2.39,0,3.21-0.88,3.21-3.9v-3.38c0.03-0.32,0.04-0.67,0.04-1.06L46.83,13.78L46.83,13.78z M76.95,0.8l-2.93,20.7L70.69,0.8H58.82
	l8.98,43.96V71.6h11.79V44.76L88.82,0.8H76.95z M27.61,25.63V14.16C27.61,5.02,22.71,0,13.81,0C4.82,0,0,5.21,0,13.87v7.39
	c0,3.31,0.16,6.42,3.05,10.31l10.71,14.29c1.32,1.75,2.06,3.31,2.06,5.64v6.05v1.34v5.71c0,1.1-0.9,1.99-2.01,1.99
	s-2.02-0.89-2.02-1.99v-5.4c0-0.11-0.01-0.2-0.01-0.31v-14.1H0v13.13c0,9.82,4.74,14.74,13.81,14.74c8.9,0,13.8-4.82,13.8-13.77
	v-8.17c0-4.37,0-7.78-2.96-11.57L13.27,24.37c-1.07-1.46-1.48-2.92-1.48-4.96v-6.22c0-0.11,0.01-0.2,0.01-0.3V8.12
	c0-1.1,0.9-1.99,2.02-1.99c1.11,0,2.01,0.89,2.01,1.99v17.51C15.83,25.63,27.61,25.63,27.61,25.63z"/>
</svg>
