<?xml version="1.0" encoding="utf-8"?>
<!-- Generator: Adobe Illustrator 27.7.0, SVG Export Plug-In . SVG Version: 6.00 Build 0)  -->
<svg version="1.1" id="レイヤー_1" xmlns="http://www.w3.org/2000/svg" xmlns:xlink="http://www.w3.org/1999/xlink" x="0px"
	 y="0px" viewBox="0 0 269.1 105.5" style="enable-background:new 0 0 269.1 105.5;" xml:space="preserve">
<style type="text/css">
	.st0{fill:#A1A5B4;}
	.st1{fill:#FFFFFF;}
</style>
<polygon class="st0" points="113.8,52 108.4,46.6 98.5,56.5 88.6,46.6 83.2,52 93.1,61.9 83.2,71.8 88.6,77.2 98.5,67.3 108.4,77.2 
	113.8,71.8 103.9,61.9 "/>
<path class="st1" d="M12.4,97.6c0-0.1-0.1-0.2-0.2-0.2c-0.2,0-1.6,0.7-2.2,1c-0.4,0.3-0.6,0.3-0.7,0.3c-0.4,0-1.6-0.8-1.6-1.2
	c0-0.2,0.4-0.6,0.5-0.6c0,0,0,0,0,0c0,0,0,0,0.1,0.1c0.2,0.4,0.7,0.4,0.9,0.4h0.1c0.1,0,0.5-0.2,1-0.3c0.5-0.2,1-0.3,1.2-0.3
	c0.2-0.1,0.3-0.1,0.4-0.2l0,0c0,0,0.1-0.1,0.1-0.1c0,0,0,0,0.1-0.1c0.2-0.2,0.3-0.2,0.4-0.2c0.5,0,2.2,0.8,2.2,1.4
	c0,0.2-0.2,0.4-0.5,0.6c-0.1,0.1-0.2,0.2-0.3,0.4c-0.5,0.8-1,1.6-1.6,2.3c1.7,0.5,3.1,1.2,3.1,2.3c0,0.5-0.3,1.2-1,1.2
	c-0.4,0-0.7-0.2-0.8-0.6c-0.1-0.2-0.2-0.5-0.3-0.8c-0.4-1.3-0.9-1.7-1.2-1.9c-2.8,3.1-6.3,3.6-6.4,3.6c0,0-0.1,0-0.1,0
	c0,0,0.1-0.1,0.3-0.2C8.5,103.5,11.4,100.4,12.4,97.6L12.4,97.6L12.4,97.6z M22.1,99.3c0.1-0.1,0.2-0.2,0.2-0.4
	c0-0.4-1.3-1.3-1.8-1.3c-0.4,0-1,0.5-1,0.6c0,0,0.1,0,0.2,0c0.3,0,0.5,0.2,0.5,0.5c0,0.8-1.6,3.8-3.9,4.7c-0.1,0-0.2,0.1-0.2,0.1
	l0,0c0,0,0,0,0.1,0c0.2,0,3.7-0.3,5.5-3.9c0-0.1,0.1-0.2,0.2-0.3L22.1,99.3z M25.6,102.1c0.2,0.7,0.7,0.8,0.9,0.8c0.4,0,1-0.5,1-1.5
	c0-2.5-4.4-3.8-4.7-3.8c0,0-0.1,0-0.1,0c0,0,0,0,0,0c0,0,0,0.1,0.1,0.1c1.1,0.6,2,1.6,2.5,3.4C25.5,101.6,25.5,101.9,25.6,102.1
	 M26.3,98.1c0.6,0,1.1-0.5,1.1-1.1s-0.5-1.2-1.1-1.2c-0.6,0-1.1,0.5-1.1,1.2C25.2,97.6,25.7,98.1,26.3,98.1 M26.3,96.2
	c0.4,0,0.8,0.3,0.8,0.8c0,0.4-0.3,0.8-0.8,0.8c-0.4,0-0.8-0.4-0.8-0.8C25.5,96.5,25.9,96.2,26.3,96.2 M35.2,99
	c0-0.2-0.2-0.4-0.4-0.5c0.6-0.6,1.1-1.2,1.7-1.8l0.1-0.1c0.3-0.2,0.5-0.3,0.5-0.6c0-0.5-1.5-1.5-2-1.5c-0.2,0-0.5,0.1-0.7,0.3
	l-0.1,0.1c0,0,0,0,0,0.1c0,0,0,0,0,0c0,0,0,0,0.1,0c0.3,0.1,0.5,0.3,0.5,0.6c0,1.3-4,5.6-6.1,6.6c-0.1,0.1-0.2,0.1-0.2,0.1v0
	c0,0,0,0,0.1,0c0,0,2.2-0.4,5.2-2.9c0,0.3,0,0.6,0,0.9c0,1-0.1,2-0.2,2.6c0,0.1-0.1,0.2-0.1,0.3c0,0.1,0,0.2,0,0.3
	c0,0.4,0.4,1.8,0.9,1.8c0.6,0,0.7-0.7,0.8-0.9c0,0,0-0.1,0-0.2c0-0.2,0-0.7-0.1-0.9c0-0.6-0.1-1.4-0.1-2.2c0-0.7,0-1.3,0-1.6
	C35.2,99.3,35.2,99.1,35.2,99L35.2,99L35.2,99z M44.2,95.8C44.1,96,44,96,43.9,96c-2.8,0.6-3.2,0.7-3.6,0.7c-0.4,0-0.7-0.1-0.9-0.4
	c0,0,0-0.1,0-0.1c0,0,0,0,0,0l-0.1,0c-0.4,0.2-0.5,0.5-0.5,0.7c0,0.3,1.1,1.2,1.5,1.2c0.2,0,0.4-0.1,0.9-0.3
	c1.3-0.6,2.9-1.1,3.2-1.1c0.1,0,0.3,0.1,0.3,0.3c0,0.4-1.9,6.3-6,7.8c-0.2,0.1-0.2,0.1-0.2,0.2c0,0,0,0,0.1,0c0.4,0,5.6-0.9,8-7.3
	c0-0.1,0.2-0.2,0.2-0.3c0.2-0.2,0.4-0.3,0.4-0.5c0-0.6-1.8-1.3-2.3-1.3c-0.1,0-0.2,0-0.2,0c0,0-0.1,0.1-0.2,0.2L44.2,95.8z
	 M53.1,98.2c-0.2,0-0.3,0.3-0.6,0.3c-1,0.1-2,0.3-3.3,0.5c-0.1,0-0.2,0-0.3,0c-0.2,0-0.4-0.1-0.5-0.3c0,0,0-0.1-0.1-0.1
	c-0.2,0-0.5,0.3-0.5,0.6c0,0.4,0.8,0.9,1.2,0.9c0.2,0,0.5-0.1,0.8-0.2c0.9-0.5,2.9-0.8,3.1-0.8c0.1,0,0.2,0.2,0.2,0.2
	c-0.2,0.3-0.5,0.7-1,1.1c0-0.1-0.1-0.1-0.2-0.2c-0.2-0.1-0.6-0.4-1-0.4c-0.3,0-0.7,0.3-0.7,0.5c0,0.1,0,0.1,0.2,0.1
	c0.2,0,0.3,0.2,0.3,0.5c0,0.6-0.3,3.3-2.8,4.3c-0.2,0.1-0.3,0.2-0.3,0.2c0,0,0,0.1,0.1,0.1c0,0,3.7-0.6,4.2-4.3
	c0-0.1,0.1-0.2,0.1-0.2c0.6-0.2,1.4-0.6,1.9-0.9c0.2-0.1,0.8-0.1,0.9-0.4c0-0.1,0-0.1,0-0.2C54.8,98.9,53.4,98.2,53.1,98.2
	C53.1,98.2,53.1,98.2,53.1,98.2z M60.2,104.7c0.2,0.4,0.6,0.7,0.9,0.7c0.8,0,1-0.8,1-1.1c0-2.1-4.6-2.7-5.2-2.7c0,0-0.2,0-0.3,0
	c0,0-0.1,0-0.1,0c0,0.1,0.2,0.1,0.3,0.2C58,102.2,59.4,103.2,60.2,104.7 M56.8,98.2C56.8,98.2,56.8,98.3,56.8,98.2
	c0.1,0.1,0.1,0.1,0.2,0.1c0.9,0.4,1.5,1.1,1.8,1.7c0.2,0.2,0.4,0.4,0.8,0.4c0.5,0,0.8-0.4,0.8-0.9c0-1.4-2.1-1.5-2.7-1.5
	c-0.2,0-0.5,0-0.7,0C57,98.2,56.8,98.2,56.8,98.2L56.8,98.2z M61,97.6c0.4,0,0.8-0.2,0.8-0.9c0-1.3-2-1.3-2.6-1.3
	c-1,0-1.9,0.2-2.1,0.3c0,0,0,0,0,0s0,0,0,0c0.6,0,1.8,0.3,3.1,1.5C60.4,97.4,60.7,97.6,61,97.6 M65.2,99.7c0,0.1,0.2,1.9,0.9,1.9
	c0.2,0,0.4-0.2,0.5-0.2c0.1-0.1,0.2-0.3,0.2-0.7c0-0.2,0-0.6,0-0.8c0-0.4,0-0.9,0-1.5V98c0-0.3,0-0.7,0-0.8c0-0.1,0-0.2,0.1-0.4
	c0.1-0.2,0.1-0.4,0.1-0.5c0-0.2-0.1-0.3-0.3-0.4c-0.2-0.1-0.9-0.5-1.4-0.5c-0.2,0-0.8,0.4-0.8,0.7c0,0,0,0.1,0.1,0.1
	c0.7,0,0.9,0.6,0.9,2c0,0.5,0,1-0.1,1.1l-0.1,0.2L65.2,99.7L65.2,99.7L65.2,99.7z M70.2,96.4c0.1-0.2,0.2-0.4,0.2-0.6
	c0-0.1,0-0.1,0-0.2c0-0.5-1.4-1-1.7-1c-0.4,0-0.9,0.6-0.9,0.7c0,0,0,0,0.1,0.1c0.6,0.1,0.7,0.6,0.7,2.2c0,1.3-0.1,2.8-0.2,3.1
	c-0.5,2.6-1.9,3.9-3.3,4.6c-0.2,0.1-0.4,0.2-0.2,0.2c0,0,4.5-0.7,5.1-5.1c0-0.4,0-1,0.1-1.4c0-0.5,0.1-2.1,0.2-2.5L70.2,96.4z
	 M79.4,99.5c-1.6,0-3.3,0.2-5.4,0.3c-0.5,0-1.9-0.1-2.1-0.5c0-0.1,0-0.1-0.1-0.1c0-0.1,0-0.1-0.1-0.1c0,0,0,0-0.1,0.1l-0.1,0.2
	c-0.1,0.1-0.1,0.2-0.1,0.2c0,0.7,1.3,1.7,2,1.7c0.4,0,0.8-0.2,1.1-0.2c1.2-0.2,2.4-0.2,3.8-0.2c0.6,0,1.2,0,1.8,0
	c0.6,0,1.7-0.2,1.7-0.7c0-0.5-1.4-0.7-2.4-0.7H79.4z M208.9,89.9h11.7V19.4h-11.7V89.9z M235.6,19.4h-11.7v70.5h21.7v-6.1h-10V19.4z
	 M257.4,19.4l-2.9,20.3l-3.3-20.3h-11.7l8.8,43.2v27.3H260V62.6l9.1-43.2L257.4,19.4L257.4,19.4z M191.2,19.4h15V90h-9.7V54.5
	L191.9,90h-8.7l-4.6-35.5V90h-9.6h-0.1h-11.5l-1.7-13.8h-5.4l-0.4,3.4L148.3,90h-11.7l4.5-33.2h-13.7l-0.2,33.3L115.6,90l0.3-70.7
	l26.9,0.1l0,5.4l-15.3,0l-0.1,26.6h14.5l4.5-32h12.9l9.6,69.6V19.4h15l3.7,24.2L191.2,19.4z M154.9,70.8l-0.1-0.5l0,0l-0.1-1.2
	l-0.6-3.6h0l-0.2-1.1v0l-1.2-7.1l-1.3,8.2h0l-0.6,5.2L154.9,70.8L154.9,70.8z M44.8,19.1c9.5,0,13.8,3.9,13.8,12.8v30
	c0,10.9-3.9,15.2-14.3,15.2h-1.4V90H31V19.2L44.8,19.1 M46.8,32.1c0-0.4,0-0.8,0-1.1v-2.6c0-3.1-0.7-4-3.5-4h-0.5v47.3h0.7
	c2.4,0,3.2-0.9,3.2-3.9v-3.4c0-0.3,0-0.7,0-1.1L46.8,32.1L46.8,32.1z M76.9,19.1L74,39.8l-3.3-20.7H58.8l9,44v26.8h11.8V63.1l9.2-44
	L76.9,19.1L76.9,19.1z M27.6,44V32.5c0-9.1-4.9-14.2-13.8-14.2C4.8,18.3,0,23.5,0,32.2v7.4c0,3.3,0.2,6.4,3,10.3l10.7,14.3
	c1.3,1.8,2.1,3.3,2.1,5.6v6.1v1.3v5.7c0,1.1-0.9,2-2,2s-2-0.9-2-2v-5.4c0-0.1,0-0.2,0-0.3V63.1H0v13.1C0,86.1,4.7,91,13.8,91
	c8.9,0,13.8-4.8,13.8-13.8v-8.2c0-4.4,0-7.8-3-11.6L13.3,42.7c-1.1-1.5-1.5-2.9-1.5-5v-6.2c0-0.1,0-0.2,0-0.3v-4.8c0-1.1,0.9-2,2-2
	c1.1,0,2,0.9,2,2V44L27.6,44L27.6,44z"/>
<g>
	<path class="st0" d="M8.9,13.3c0,1.9,0.2,2.1,2.2,2.1v0.5H3.7v-0.5c1.9,0,2.2-0.3,2.2-2.1V1.2c-1.7,0-2.7,0.4-3.4,1.4
		C1.9,3.2,1.6,4.3,1.3,6.1l-0.8,0l0.4-5.5h13l0.4,5.5l-0.7,0c-0.3-2-0.7-3.1-1.4-3.8c-0.7-0.8-1.6-1.1-3.2-1.1V13.3z"/>
	<path class="st0" d="M17.2,3.7c-0.7-2-1.1-2.4-2.4-2.6V0.6h7.1v0.5l-0.4,0c-0.7,0.1-1,0.1-1.2,0.3C20.1,1.7,20,1.9,20,2.2
		c0,0.4,0.1,1.1,0.4,1.9l3.1,9.1l3.2-8.8c0.3-0.8,0.4-1.5,0.4-2c0-0.8-0.5-1.1-2-1.2V0.6h5.4v0.5c-1.5,0.1-2.2,0.9-3.1,3.4L23.3,16
		h-1.8L17.2,3.7z"/>
	<path class="st0" d="M33.7,17.2c1.7-1.6,2.9-3.4,3.8-5.5c0.6-1.6,1.1-3.7,1.1-4.7c0-0.5-0.1-0.7-0.5-1c-0.2-0.2-0.5-0.3-0.9-0.5
		c0.2-0.2,0.5-0.3,0.9-0.3c0.8,0,2.3,0.6,3.4,1.4c1.5-1.1,3.6-3.3,3.6-3.7c0-0.2-0.1-0.2-0.6-0.2c-1,0-3.4,0.3-5.3,0.7
		c-1.8,0.4-2.7,0.7-3.8,1.3c-0.5,0.3-0.7,0.3-1,0.3c-0.6,0-1.4-0.6-2-1.6c-0.4-0.6-0.6-1.3-0.6-1.7c0-0.2,0-0.4,0.1-0.6
		c0.3,0.5,0.5,0.7,0.8,0.9c0.4,0.3,0.8,0.4,1.5,0.4c0.8,0,1.8-0.1,6.2-0.6c3.7-0.4,3.7-0.4,4.2-0.6C45,0.9,45,0.9,45.3,0.9
		c0.4,0,1,0.4,1.8,1.2c0.9,0.9,1.3,1.5,1.3,1.9c0,0.3-0.1,0.5-0.4,0.7c-0.2,0.1-0.2,0.1-0.6,0.2C47.1,5,47,5,46.6,5.2
		c-2.2,0.9-2.8,1.2-5,1.9c-0.8,3-1.3,4.3-2.4,5.9c-1.3,1.8-3.1,3.4-5.3,4.4L33.7,17.2z"/>
	<path class="st0" d="M50.3,11.8c0.4,0.2,0.8,0.4,1.4,0.4c0.5,0,0.9,0,2.8-0.3c2.2-0.3,3.6-0.4,7.4-0.6c0.9-0.1,1.1-0.1,1.7-0.3
		c0.4-0.1,0.5-0.2,0.7-0.2c0.4,0,1,0.3,1.6,0.7c0.7,0.5,1,0.9,1,1.4c0,0.5-0.4,0.9-0.9,0.9c-0.2,0-0.4,0-1.1-0.2
		c-2.1-0.4-3.1-0.5-4.7-0.5c-2.7,0-5.6,0.5-7.4,1.4c-0.3,0.2-0.6,0.2-0.8,0.2c-0.7,0-1.6-0.7-2.3-1.8c-0.4-0.6-0.6-1.4-0.6-1.8
		c0-0.1,0-0.1,0.1-0.5C49.4,11.1,49.8,11.5,50.3,11.8z M52.5,2.8c0.9,0.8,1.4,1,2.4,1c1.1,0,2.4-0.2,3.8-0.6
		c0.8-0.2,1.2-0.4,1.7-0.7c0.2-0.1,0.4-0.2,0.6-0.2c0.5,0,1.2,0.3,1.7,0.8c0.4,0.3,0.5,0.5,0.5,0.9c0,0.6-0.4,0.8-1.8,1
		c-1.7,0.3-4,0.5-5.3,0.5c-1.2,0-2-0.3-2.8-1.1c-0.4-0.4-0.6-0.7-1-1.6L52.5,2.8z"/>
	<path class="st0" d="M70.9,4.4c1.9,0.6,3.7,1.4,5.5,2.5c1.5-2.4,2.2-4.1,2.2-4.9c0-0.7-0.5-1.3-1.4-1.8C77.5,0,77.6,0,77.9,0
		c0.9,0,2.3,0.6,3.2,1.4C81.7,2,82,2.3,82,2.8c0,0.3-0.1,0.4-0.6,0.8c-0.3,0.2-0.3,0.3-0.8,1.1L78.5,8c2.4,1.6,2.9,2.3,2.9,3.5
		c0,1-0.5,1.8-1.1,1.8c-0.3,0-0.5-0.2-0.9-0.7c-0.6-1-1.3-1.8-2.2-2.8c-1.6,2-2.8,3.3-4.4,4.5c-1.6,1.2-3,2-5.1,2.8L67.5,17
		c2.8-2.1,5.9-5.4,8-8.8c-1.6-1.4-3.5-2.8-4.8-3.6L70.9,4.4z"/>
</g>
</svg>
